<svg xmlns="http://www.w3.org/2000/svg" width="120" height="240" viewBox="0 0 120 240" shape-rendering="crispEdges"><path d="M0,69.12V0H120V25.92H95.04v8.64H77.76V43.2H51.84v8.64H25.92v8.64H8.64v8.64Z" fill="#282828"/><path d="M120,224.64V240H77.76v-6.72h25.92v-8.64H120Z" fill="#00a382"/><path d="M0,233.28v-8.64H8.64v8.64Z" fill="#1d9176"/><path d="M0,69.12H8.64v8.64H0Z" fill="#292b2a"/><path d="M0,77.76H8.64V86.4H0Z" fill="#2a2e2d"/><path d="M0,86.4H8.64v8.64H0Z" fill="#2b322f"/><path d="M0,95.04H8.64v8.64H0Z" fill="#2c3633"/><path d="M0,103.68H8.64v8.64H0Z" fill="#2d3b36"/><path d="M0,112.32H8.64v8.64H0Z" fill="#2d403a"/><path d="M0,120.96H8.64v8.64H0Z" fill="#2e463e"/><path d="M0,129.6H8.64v8.64H0Z" fill="#2f4c42"/><path d="M0,138.24H8.64v8.64H0Z" fill="#2f5247"/><path d="M0,146.88H8.64v8.64H0Z" fill="#2f584c"/><path d="M0,155.52H8.64v8.64H0Z" fill="#2f5f50"/><path d="M0,164.16H8.64v8.64H0Z" fill="#2e6555"/><path d="M0,172.8H8.64v8.64H0Z" fill="#2d6c5a"/><path d="M0,181.44H8.64v8.64H0Z" fill="#2c735f"/><path d="M0,190.08H8.64v8.64H0Z" fill="#2a7964"/><path d="M0,198.72H8.64v8.64H0Z" fill="#287f69"/><path d="M0,207.36H8.64V216H0Z" fill="#25856d"/><path d="M0,216H8.64v8.64H0Z" fill="#218b71"/><path d="M112.32,25.92H120v8.64h-7.68Z" fill="#292b2a"/><path d="M112.32,34.56H120V43.2h-7.68Z" fill="#2a2e2c"/><path d="M112.32,43.2H120v8.64h-7.68Z" fill="#2b322f"/><path d="M112.32,51.84H120v8.64h-7.68Z" fill="#2c3632"/><path d="M112.32,60.48H120v8.64h-7.68Z" fill="#2d3b36"/><path d="M112.32,69.12H120v8.64h-7.68Z" fill="#2d403a"/><path d="M112.32,77.76H120V86.4h-7.68Z" fill="#2e463e"/><path d="M112.32,86.4H120v8.64h-7.68Z" fill="#2f4b42"/><path d="M112.32,95.04H120v8.64h-7.68Z" fill="#2f5147"/><path d="M112.32,103.68H120v8.64h-7.68Z" fill="#2f584b"/><path d="M112.32,112.32H120v8.64h-7.68Z" fill="#2f5e50"/><path d="M112.32,120.96H120v8.64h-7.68Z" fill="#2e6555"/><path d="M120,146.88v8.64h-7.68v-8.64Z" fill="#2a7964"/><path d="M120,190.08v8.64h-7.68v-8.64Z" fill="#199579"/><path d="M120,207.36V216h-7.68v-8.64Z" fill="#0c9e7f"/><path d="M120,164.16v8.64h-7.68v-8.64Z" fill="#25856d"/><path d="M120,207.36h-7.68v-8.64H120Z" fill="#139a7d"/><path d="M120,146.88h-7.68v-8.64H120Z" fill="#2c725f"/><path d="M112.32,172.8H120v8.64h-7.68Z" fill="#228b71"/><path d="M112.32,216H120v8.64h-7.68Z" fill="#03a281"/><path d="M120,164.16h-7.68v-8.64H120Z" fill="#287f68"/><path d="M112.32,181.44H120v8.64h-7.68Z" fill="#1e9075"/><path d="M120,138.24h-7.68V129.6H120Z" fill="#2d6c5a"/><path d="M0,233.28H8.64V240H0Z" fill="#189679"/><path d="M8.64,240v-6.72h8.64V240Z" fill="#16987b"/><path d="M17.28,240v-6.72h8.64V240Z" fill="#14997c"/><path d="M25.92,240v-6.72h8.64V240Z" fill="#129b7d"/><path d="M34.56,240v-6.72H43.2V240Z" fill="#0f9d7e"/><path d="M43.2,240v-6.72h8.64V240Z" fill="#0c9e7f"/><path d="M51.84,240v-6.72h8.64V240Z" fill="#09a080"/><path d="M60.48,240v-6.72h8.64V240Z" fill="#05a181"/><path d="M69.12,240v-6.72h8.64V240Z" fill="#02a281"/><path d="M95.04,34.56V25.92h8.64v8.64Z" fill="#282928"/><path d="M103.68,34.56V25.92h8.64v8.64Z" fill="#282a29"/><path d="M77.76,43.2V34.56H86.4V43.2Z" fill="#282929"/><path d="M86.4,43.2V34.56h8.64V43.2Z" fill="#292a2a"/><path d="M51.84,51.84V43.2h8.64v8.64Z" fill="#282929"/><path d="M60.48,51.84V43.2h8.64v8.64Z" fill="#292a29"/><path d="M69.12,51.84V43.2h8.64v8.64Z" fill="#292b2a"/><path d="M25.92,60.48V51.84h8.64v8.64Z" fill="#282928"/><path d="M34.56,60.48V51.84H43.2v8.64Z" fill="#282929"/><path d="M43.2,60.48V51.84h8.64v8.64Z" fill="#292b2a"/><path d="M8.64,69.12V60.48h8.64v8.64Z" fill="#282929"/><path d="M17.28,69.12V60.48h8.64v8.64Z" fill="#292a2a"/><path d="M86.4,233.28H77.76v-8.64H86.4Z" fill="#07a080"/><path d="M86.4,233.28v-8.64h8.64v8.64Z" fill="#04a181"/><path d="M95.04,233.28v-8.64h8.64v8.64Z" fill="#02a282"/><path d="M112.32,216v8.64h-8.64V216Z" fill="#06a180"/><path d="M17.28,233.28H8.64v-8.64h8.64Z" fill="#1c9377"/><path d="M8.64,69.12h8.64v8.64H8.64Z" fill="#292c2b"/><path d="M8.64,77.76h8.64V86.4H8.64Z" fill="#2a302e"/><path d="M8.64,86.4h8.64v8.64H8.64Z" fill="#2b3431"/><path d="M8.64,95.04h8.64v8.64H8.64Z" fill="#2c3834"/><path d="M8.64,103.68h8.64v8.64H8.64Z" fill="#2d3d37"/><path d="M8.64,112.32h8.64v8.64H8.64Z" fill="#2e423b"/><path d="M8.64,120.96h8.64v8.64H8.64Z" fill="#2e4840"/><path d="M8.64,129.6h8.64v8.64H8.64Z" fill="#2f4e44"/><path d="M8.64,138.24h8.64v8.64H8.64Z" fill="#2f5449"/><path d="M8.64,146.88h8.64v8.64H8.64Z" fill="#2f5b4d"/><path d="M8.64,155.52h8.64v8.64H8.64Z" fill="#2f6152"/><path d="M8.64,164.16h8.64v8.64H8.64Z" fill="#2e6857"/><path d="M8.64,172.8h8.64v8.64H8.64Z" fill="#2d6f5c"/><path d="M8.64,181.44h8.64v8.64H8.64Z" fill="#2b7561"/><path d="M8.64,190.08h8.64v8.64H8.64Z" fill="#297c66"/><path d="M8.64,198.72h8.64v8.64H8.64Z" fill="#27816a"/><path d="M8.64,207.36h8.64V216H8.64Z" fill="#24876f"/><path d="M8.64,216h8.64v8.64H8.64Z" fill="#208d73"/><path d="M103.68,34.56h8.64V43.2h-8.64Z" fill="#292d2b"/><path d="M103.68,43.2h8.64v8.64h-8.64Z" fill="#2a302e"/><path d="M103.68,51.84h8.64v8.64h-8.64Z" fill="#2b3431"/><path d="M103.68,60.48h8.64v8.64h-8.64Z" fill="#2c3934"/><path d="M103.68,69.12h8.64v8.64h-8.64Z" fill="#2d3e38"/><path d="M103.68,77.76h8.64V86.4h-8.64Z" fill="#2e433c"/><path d="M103.68,86.4h8.64v8.64h-8.64Z" fill="#2e4940"/><path d="M103.68,95.04h8.64v8.64h-8.64Z" fill="#2f4f45"/><path d="M103.68,103.68h8.64v8.64h-8.64Z" fill="#2f5549"/><path d="M103.68,112.32h8.64v8.64h-8.64Z" fill="#2f5c4e"/><path d="M103.68,120.96h8.64v8.64h-8.64Z" fill="#2f6253"/><path d="M112.32,146.88v8.64h-8.64v-8.64Z" fill="#2b7762"/><path d="M112.32,190.08v8.64h-8.64v-8.64Z" fill="#1b9478"/><path d="M112.32,216h-8.64v-8.64h8.64Z" fill="#0f9d7f"/><path d="M112.32,164.16v8.64h-8.64v-8.64Z" fill="#26826b"/><path d="M112.32,207.36h-8.64v-8.64h8.64Z" fill="#15987b"/><path d="M112.32,146.88h-8.64v-8.64h8.64Z" fill="#2d705d"/><path d="M103.68,172.8h8.64v8.64h-8.64Z" fill="#238870"/><path d="M112.32,164.16h-8.64v-8.64h8.64Z" fill="#297d67"/><path d="M103.68,181.44h8.64v8.64h-8.64Z" fill="#1f8e74"/><path d="M112.32,138.24h-8.64V129.6h8.64Z" fill="#2e6958"/><path d="M17.28,233.28v-8.64h8.64v8.64Z" fill="#1a9579"/><path d="M25.92,233.28v-8.64h8.64v8.64Z" fill="#18977a"/><path d="M34.56,233.28v-8.64H43.2v8.64Z" fill="#15987b"/><path d="M43.2,233.28v-8.64h8.64v8.64Z" fill="#139a7c"/><path d="M51.84,233.28v-8.64h8.64v8.64Z" fill="#119c7e"/><path d="M60.48,233.28v-8.64h8.64v8.64Z" fill="#0e9d7f"/><path d="M69.12,233.28v-8.64h8.64v8.64Z" fill="#0b9f7f"/><path d="M103.68,34.56V43.2H95.04V34.56Z" fill="#292b2a"/><path d="M77.76,51.84V43.2H86.4v8.64Z" fill="#292c2b"/><path d="M86.4,51.84V43.2h8.64v8.64Z" fill="#2a2d2c"/><path d="M51.84,60.48V51.84h8.64v8.64Z" fill="#292c2b"/><path d="M60.48,60.48V51.84h8.64v8.64Z" fill="#292d2c"/><path d="M69.12,60.48V51.84h8.64v8.64Z" fill="#2a2e2d"/><path d="M25.92,69.12V60.48h8.64v8.64Z" fill="#292b2a"/><path d="M34.56,69.12V60.48H43.2v8.64Z" fill="#292c2b"/><path d="M43.2,69.12V60.48h8.64v8.64Z" fill="#2a2e2c"/><path d="M17.28,77.76V69.12h8.64v8.64Z" fill="#2a2d2c"/><path d="M86.4,224.64H77.76V216H86.4Z" fill="#109c7e"/><path d="M86.4,224.64V216h8.64v8.64Z" fill="#0d9e7f"/><path d="M95.04,224.64V216h8.64v8.64Z" fill="#0a9f7f"/><path d="M17.28,77.76h8.64V86.4H17.28Z" fill="#2a312f"/><path d="M17.28,86.4h8.64v8.64H17.28Z" fill="#2b3532"/><path d="M17.28,95.04h8.64v8.64H17.28Z" fill="#2c3a35"/><path d="M17.28,103.68h8.64v8.64H17.28Z" fill="#2d3f39"/><path d="M17.28,112.32h8.64v8.64H17.28Z" fill="#2e443d"/><path d="M17.28,120.96h8.64v8.64H17.28Z" fill="#2f4a41"/><path d="M17.28,129.6h8.64v8.64H17.28Z" fill="#2f5046"/><path d="M17.28,138.24h8.64v8.64H17.28Z" fill="#2f574a"/><path d="M17.28,146.88h8.64v8.64H17.28Z" fill="#2f5d4f"/><path d="M17.28,155.52h8.64v8.64H17.28Z" fill="#2e6454"/><path d="M17.28,164.16h8.64v8.64H17.28Z" fill="#2e6b59"/><path d="M17.28,172.8h8.64v8.64H17.28Z" fill="#2c715e"/><path d="M17.28,181.44h8.64v8.64H17.28Z" fill="#2b7863"/><path d="M17.28,190.08h8.64v8.64H17.28Z" fill="#287e67"/><path d="M17.28,198.72h8.64v8.64H17.28Z" fill="#26846c"/><path d="M17.28,207.36h8.64V216H17.28Z" fill="#228a71"/><path d="M17.28,216h8.64v8.64H17.28Z" fill="#1e8f75"/><path d="M95.04,51.84V43.2h8.64v8.64Z" fill="#2a2f2d"/><path d="M95.04,51.84h8.64v8.64H95.04Z" fill="#2b3330"/><path d="M95.04,60.48h8.64v8.64H95.04Z" fill="#2c3733"/><path d="M95.04,69.12h8.64v8.64H95.04Z" fill="#2d3c37"/><path d="M95.04,77.76h8.64V86.4H95.04Z" fill="#2e413b"/><path d="M95.04,86.4h8.64v8.64H95.04Z" fill="#2e473f"/><path d="M95.04,95.04h8.64v8.64H95.04Z" fill="#2f4d43"/><path d="M95.04,103.68h8.64v8.64H95.04Z" fill="#2f5348"/><path d="M95.04,112.32h8.64v8.64H95.04Z" fill="#2f594c"/><path d="M95.04,120.96h8.64v8.64H95.04Z" fill="#2f6051"/><path d="M103.68,146.88v8.64H95.04v-8.64Z" fill="#2c7460"/><path d="M103.68,190.08v8.64H95.04v-8.64Z" fill="#1c9276"/><path d="M103.68,216H95.04v-8.64h8.64Z" fill="#119b7d"/><path d="M103.68,164.16v8.64H95.04v-8.64Z" fill="#278069"/><path d="M103.68,207.36H95.04v-8.64h8.64Z" fill="#17977a"/><path d="M103.68,146.88H95.04v-8.64h8.64Z" fill="#2d6d5b"/><path d="M95.04,172.8h8.64v8.64H95.04Z" fill="#24866e"/><path d="M103.68,164.16H95.04v-8.64h8.64Z" fill="#2a7b65"/><path d="M95.04,181.44h8.64v8.64H95.04Z" fill="#218c72"/><path d="M103.68,138.24H95.04V129.6h8.64Z" fill="#2e6756"/><path d="M25.92,224.64V216h8.64v8.64Z" fill="#1d9176"/><path d="M34.56,224.64V216H43.2v8.64Z" fill="#1b9378"/><path d="M43.2,224.64V216h8.64v8.64Z" fill="#199579"/><path d="M51.84,224.64V216h8.64v8.64Z" fill="#17977a"/><path d="M60.48,224.64V216h8.64v8.64Z" fill="#15997c"/><path d="M69.12,224.64V216h8.64v8.64Z" fill="#129b7d"/><path d="M77.76,60.48V51.84H86.4v8.64Z" fill="#2a302e"/><path d="M86.4,60.48V51.84h8.64v8.64Z" fill="#2a312f"/><path d="M51.84,69.12V60.48h8.64v8.64Z" fill="#2a2f2d"/><path d="M60.48,69.12V60.48h8.64v8.64Z" fill="#2a312e"/><path d="M69.12,69.12V60.48h8.64v8.64Z" fill="#2b322f"/><path d="M25.92,77.76V69.12h8.64v8.64Z" fill="#2a2f2d"/><path d="M34.56,77.76V69.12H43.2v8.64Z" fill="#2a302e"/><path d="M43.2,77.76V69.12h8.64v8.64Z" fill="#2b322f"/><path d="M86.4,216H77.76v-8.64H86.4Z" fill="#16987b"/><path d="M86.4,216v-8.64h8.64V216Z" fill="#149a7c"/><path d="M25.92,77.76h8.64V86.4H25.92Z" fill="#2b3330"/><path d="M25.92,86.4h8.64v8.64H25.92Z" fill="#2c3733"/><path d="M25.92,95.04h8.64v8.64H25.92Z" fill="#2d3c37"/><path d="M25.92,103.68h8.64v8.64H25.92Z" fill="#2e413a"/><path d="M25.92,112.32h8.64v8.64H25.92Z" fill="#2e473f"/><path d="M25.92,120.96h8.64v8.64H25.92Z" fill="#2f4d43"/><path d="M25.92,129.6h8.64v8.64H25.92Z" fill="#2f5347"/><path d="M25.92,138.24h8.64v8.64H25.92Z" fill="#2f594c"/><path d="M25.92,146.88h8.64v8.64H25.92Z" fill="#2f6051"/><path d="M25.92,155.52h8.64v8.64H25.92Z" fill="#2e6656"/><path d="M25.92,164.16h8.64v8.64H25.92Z" fill="#2d6d5b"/><path d="M25.92,172.8h8.64v8.64H25.92Z" fill="#2c7460"/><path d="M25.92,181.44h8.64v8.64H25.92Z" fill="#2a7a65"/><path d="M25.92,190.08h8.64v8.64H25.92Z" fill="#278069"/><path d="M25.92,198.72h8.64v8.64H25.92Z" fill="#24866e"/><path d="M25.92,207.36h8.64V216H25.92Z" fill="#218c72"/><path d="M86.4,60.48h8.64v8.64H86.4Z" fill="#2b3532"/><path d="M86.4,69.12h8.64v8.64H86.4Z" fill="#2c3a35"/><path d="M86.4,77.76h8.64V86.4H86.4Z" fill="#2d3f39"/><path d="M86.4,86.4h8.64v8.64H86.4Z" fill="#2e453d"/><path d="M86.4,95.04h8.64v8.64H86.4Z" fill="#2f4b41"/><path d="M86.4,103.68h8.64v8.64H86.4Z" fill="#2f5146"/><path d="M86.4,112.32h8.64v8.64H86.4Z" fill="#2f574b"/><path d="M86.4,120.96h8.64v8.64H86.4Z" fill="#2f5d4f"/><path d="M95.04,146.88v8.64H86.4v-8.64Z" fill="#2c715e"/><path d="M95.04,190.08v8.64H86.4v-8.64Z" fill="#1e9075"/><path d="M95.04,164.16v8.64H86.4v-8.64Z" fill="#287f68"/><path d="M86.4,198.72h8.64v8.64H86.4Z" fill="#199579"/><path d="M95.04,146.88H86.4v-8.64h8.64Z" fill="#2e6b59"/><path d="M86.4,172.8h8.64v8.64H86.4Z" fill="#26846c"/><path d="M95.04,164.16H86.4v-8.64h8.64Z" fill="#2b7863"/><path d="M86.4,181.44h8.64v8.64H86.4Z" fill="#228a71"/><path d="M95.04,138.24H86.4V129.6h8.64Z" fill="#2e6454"/><path d="M34.56,216v-8.64H43.2V216Z" fill="#1f8e74"/><path d="M43.2,216v-8.64h8.64V216Z" fill="#1e9075"/><path d="M51.84,216v-8.64h8.64V216Z" fill="#1c9277"/><path d="M60.48,216v-8.64h8.64V216Z" fill="#1a9478"/><path d="M69.12,216v-8.64h8.64V216Z" fill="#18967a"/><path d="M86.4,60.48v8.64H77.76V60.48Z" fill="#2b3431"/><path d="M51.84,77.76V69.12h8.64v8.64Z" fill="#2b3330"/><path d="M60.48,77.76V69.12h8.64v8.64Z" fill="#2b3531"/><path d="M69.12,77.76V69.12h8.64v8.64Z" fill="#2c3633"/><path d="M34.56,86.4V77.76H43.2V86.4Z" fill="#2b3431"/><path d="M43.2,86.4V77.76h8.64V86.4Z" fill="#2c3632"/><path d="M86.4,198.72v8.64H77.76v-8.64Z" fill="#1b9377"/><path d="M34.56,86.4H43.2v8.64H34.56Z" fill="#2c3934"/><path d="M34.56,95.04H43.2v8.64H34.56Z" fill="#2d3e38"/><path d="M34.56,103.68H43.2v8.64H34.56Z" fill="#2e433c"/><path d="M34.56,112.32H43.2v8.64H34.56Z" fill="#2e4940"/><path d="M34.56,120.96H43.2v8.64H34.56Z" fill="#2f4f45"/><path d="M34.56,129.6H43.2v8.64H34.56Z" fill="#2f5549"/><path d="M34.56,138.24H43.2v8.64H34.56Z" fill="#2f5c4e"/><path d="M34.56,146.88H43.2v8.64H34.56Z" fill="#2f6253"/><path d="M34.56,155.52H43.2v8.64H34.56Z" fill="#2e6958"/><path d="M34.56,164.16H43.2v8.64H34.56Z" fill="#2d705d"/><path d="M34.56,172.8H43.2v8.64H34.56Z" fill="#2b7662"/><path d="M34.56,181.44H43.2v8.64H34.56Z" fill="#297d66"/><path d="M34.56,190.08H43.2v8.64H34.56Z" fill="#26826b"/><path d="M34.56,198.72H43.2v8.64H34.56Z" fill="#23886f"/><path d="M77.76,77.76V69.12H86.4v8.64Z" fill="#2c3834"/><path d="M77.76,77.76H86.4V86.4H77.76Z" fill="#2d3d38"/><path d="M77.76,86.4H86.4v8.64H77.76Z" fill="#2e433c"/><path d="M77.76,95.04H86.4v8.64H77.76Z" fill="#2e4840"/><path d="M77.76,103.68H86.4v8.64H77.76Z" fill="#2f4e44"/><path d="M77.76,112.32H86.4v8.64H77.76Z" fill="#2f5549"/><path d="M77.76,120.96H86.4v8.64H77.76Z" fill="#2f5b4e"/><path d="M86.4,146.88v8.64H77.76v-8.64Z" fill="#2d6f5c"/><path d="M86.4,198.72H77.76v-8.64H86.4Z" fill="#208d73"/><path d="M86.4,164.16v8.64H77.76v-8.64Z" fill="#297c66"/><path d="M86.4,146.88H77.76v-8.64H86.4Z" fill="#2e6857"/><path d="M77.76,172.8H86.4v8.64H77.76Z" fill="#27826b"/><path d="M86.4,164.16H77.76v-8.64H86.4Z" fill="#2b7661"/><path d="M77.76,181.44H86.4v8.64H77.76Z" fill="#24886f"/><path d="M86.4,138.24H77.76V129.6H86.4Z" fill="#2f6252"/><path d="M43.2,207.36v-8.64h8.64v8.64Z" fill="#228a71"/><path d="M51.84,207.36v-8.64h8.64v8.64Z" fill="#208d73"/><path d="M60.48,207.36v-8.64h8.64v8.64Z" fill="#1f8f74"/><path d="M69.12,207.36v-8.64h8.64v8.64Z" fill="#1d9176"/><path d="M51.84,86.4V77.76h8.64V86.4Z" fill="#2c3833"/><path d="M60.48,86.4V77.76h8.64V86.4Z" fill="#2c3935"/><path d="M69.12,86.4V77.76h8.64V86.4Z" fill="#2d3b36"/><path d="M43.2,95.04V86.4h8.64v8.64Z" fill="#2d3b36"/><path d="M43.2,95.04h8.64v8.64H43.2Z" fill="#2d4039"/><path d="M43.2,103.68h8.64v8.64H43.2Z" fill="#2e453e"/><path d="M43.2,112.32h8.64v8.64H43.2Z" fill="#2f4b42"/><path d="M43.2,120.96h8.64v8.64H43.2Z" fill="#2f5146"/><path d="M43.2,129.6h8.64v8.64H43.2Z" fill="#2f584b"/><path d="M43.2,138.24h8.64v8.64H43.2Z" fill="#2f5e50"/><path d="M43.2,146.88h8.64v8.64H43.2Z" fill="#2e6555"/><path d="M43.2,155.52h8.64v8.64H43.2Z" fill="#2d6b5a"/><path d="M43.2,164.16h8.64v8.64H43.2Z" fill="#2c725f"/><path d="M43.2,172.8h8.64v8.64H43.2Z" fill="#2a7963"/><path d="M43.2,181.44h8.64v8.64H43.2Z" fill="#287f68"/><path d="M43.2,190.08h8.64v8.64H43.2Z" fill="#25846d"/><path d="M69.12,86.4h8.64v8.64H69.12Z" fill="#2d403a"/><path d="M69.12,95.04h8.64v8.64H69.12Z" fill="#2e463e"/><path d="M69.12,103.68h8.64v8.64H69.12Z" fill="#2f4c42"/><path d="M69.12,112.32h8.64v8.64H69.12Z" fill="#2f5247"/><path d="M69.12,120.96h8.64v8.64H69.12Z" fill="#2f594c"/><path d="M77.76,146.88v8.64H69.12v-8.64Z" fill="#2d6c5a"/><path d="M77.76,198.72H69.12v-8.64h8.64Z" fill="#218b72"/><path d="M77.76,164.16v8.64H69.12v-8.64Z" fill="#2a7a64"/><path d="M77.76,146.88H69.12v-8.64h8.64Z" fill="#2e6655"/><path d="M69.12,172.8h8.64v8.64H69.12Z" fill="#287f69"/><path d="M77.76,164.16H69.12v-8.64h8.64Z" fill="#2c735f"/><path d="M69.12,181.44h8.64v8.64H69.12Z" fill="#25856d"/><path d="M77.76,138.24H69.12V129.6h8.64Z" fill="#2f5f51"/><path d="M51.84,198.72v-8.64h8.64v8.64Z" fill="#24876e"/><path d="M60.48,198.72v-8.64h8.64v8.64Z" fill="#238970"/><path d="M51.84,95.04V86.4h8.64v8.64Z" fill="#2d3d37"/><path d="M60.48,95.04V86.4h8.64v8.64Z" fill="#2d3e39"/><path d="M51.84,95.04h8.64v8.64H51.84Z" fill="#2e423b"/><path d="M51.84,103.68h8.64v8.64H51.84Z" fill="#2e473f"/><path d="M51.84,112.32h8.64v8.64H51.84Z" fill="#2f4d44"/><path d="M51.84,120.96h8.64v8.64H51.84Z" fill="#2f5448"/><path d="M51.84,129.6h8.64v8.64H51.84Z" fill="#2f5a4d"/><path d="M51.84,138.24h8.64v8.64H51.84Z" fill="#2f6152"/><path d="M51.84,146.88h8.64v8.64H51.84Z" fill="#2e6757"/><path d="M51.84,155.52h8.64v8.64H51.84Z" fill="#2d6e5c"/><path d="M51.84,164.16h8.64v8.64H51.84Z" fill="#2c7560"/><path d="M51.84,172.8h8.64v8.64H51.84Z" fill="#2a7b65"/><path d="M51.84,181.44h8.64v8.64H51.84Z" fill="#27816a"/><path d="M60.48,103.68V95.04h8.64v8.64Z" fill="#2e443d"/><path d="M60.48,103.68h8.64v8.64H60.48Z" fill="#2f4a41"/><path d="M60.48,112.32h8.64v8.64H60.48Z" fill="#2f5045"/><path d="M60.48,120.96h8.64v8.64H60.48Z" fill="#2f564a"/><path d="M60.48,155.52v-8.64h8.64v8.64Z" fill="#2e6a58"/><path d="M60.48,172.8v-8.64h8.64v8.64Z" fill="#2b7762"/><path d="M69.12,146.88H60.48v-8.64h8.64Z" fill="#2f6354"/><path d="M60.48,172.8h8.64v8.64H60.48Z" fill="#297e67"/><path d="M69.12,164.16H60.48v-8.64h8.64Z" fill="#2c715d"/><path d="M60.48,181.44h8.64v8.64H60.48Z" fill="#26836c"/><path d="M69.12,138.24H60.48V129.6h8.64Z" fill="#2f5d4f"/></svg>